<?xml version="1.0" encoding="UTF-8" standalone="no"?>
<svg
   xmlns:dc="http://purl.org/dc/elements/1.1/"
   xmlns:cc="http://creativecommons.org/ns#"
   xmlns:rdf="http://www.w3.org/1999/02/22-rdf-syntax-ns#"
   xmlns:svg="http://www.w3.org/2000/svg"
   xmlns="http://www.w3.org/2000/svg"
   xmlns:sodipodi="http://sodipodi.sourceforge.net/DTD/sodipodi-0.dtd"
   xmlns:inkscape="http://www.inkscape.org/namespaces/inkscape"
   inkscape:version="1.0 (4035a4fb49, 2020-05-01)"
   height="297mm"
   width="210mm"
   sodipodi:docname="boite_5iris.svg"
   id="svg842"
   version="1.1"
   viewBox="0 0 793.70079 1122.5197">
  <metadata
     id="metadata848">
    <rdf:RDF>
      <cc:Work
         rdf:about="">
        <dc:format>image/svg+xml</dc:format>
        <dc:type
           rdf:resource="http://purl.org/dc/dcmitype/StillImage" />
        <dc:title></dc:title>
      </cc:Work>
    </rdf:RDF>
  </metadata>
  <defs
     id="defs846" />
  <sodipodi:namedview
     inkscape:current-layer="svg842"
     inkscape:window-maximized="1"
     inkscape:window-y="-8"
     inkscape:window-x="-8"
     inkscape:cy="510.39346"
     inkscape:cx="65.00813"
     inkscape:zoom="0.58515118"
     units="mm"
     showgrid="false"
     id="namedview844"
     inkscape:window-height="1017"
     inkscape:window-width="1920"
     inkscape:pageshadow="2"
     inkscape:pageopacity="0"
     guidetolerance="10"
     gridtolerance="10"
     objecttolerance="10"
     borderopacity="1"
     bordercolor="#666666"
     pagecolor="#ffffff" />
  <g
     transform="matrix(0.96227985,0,0,0.96227985,-92.908733,-112.21826)"
     id="g448">/n<line
   id="line2"
   stroke="#00ff00"
   y2="150"
   x2="300"
   y1="150"
   x1="150" />
<line
   id="line4"
   stroke="#0000ff"
   fill="none"
   y2="250"
   x2="153"
   y1="250"
   x1="150" />
<line
   id="line6"
   stroke="#0000ff"
   fill="none"
   y2="250"
   x2="162"
   y1="250"
   x1="159" />
<line
   id="line8"
   stroke="#0000ff"
   fill="none"
   y2="250"
   x2="171"
   y1="250"
   x1="168" />
<line
   id="line10"
   stroke="#0000ff"
   fill="none"
   y2="250"
   x2="180"
   y1="250"
   x1="177" />
<line
   id="line12"
   stroke="#0000ff"
   fill="none"
   y2="250"
   x2="189"
   y1="250"
   x1="186" />
<line
   id="line14"
   stroke="#0000ff"
   fill="none"
   y2="250"
   x2="198"
   y1="250"
   x1="195" />
<line
   id="line16"
   stroke="#0000ff"
   fill="none"
   y2="250"
   x2="207"
   y1="250"
   x1="204" />
<line
   id="line18"
   stroke="#0000ff"
   fill="none"
   y2="250"
   x2="216"
   y1="250"
   x1="213" />
<line
   id="line20"
   stroke="#0000ff"
   fill="none"
   y2="250"
   x2="225"
   y1="250"
   x1="222" />
<line
   id="line22"
   stroke="#0000ff"
   fill="none"
   y2="250"
   x2="234"
   y1="250"
   x1="231" />
<line
   id="line24"
   stroke="#0000ff"
   fill="none"
   y2="250"
   x2="243"
   y1="250"
   x1="240" />
<line
   id="line26"
   stroke="#0000ff"
   fill="none"
   y2="250"
   x2="252"
   y1="250"
   x1="249" />
<line
   id="line28"
   stroke="#0000ff"
   fill="none"
   y2="250"
   x2="261"
   y1="250"
   x1="258" />
<line
   id="line30"
   stroke="#0000ff"
   fill="none"
   y2="250"
   x2="270"
   y1="250"
   x1="267" />
<line
   id="line32"
   stroke="#0000ff"
   fill="none"
   y2="250"
   x2="279"
   y1="250"
   x1="276" />
<line
   id="line34"
   stroke="#0000ff"
   fill="none"
   y2="250"
   x2="288"
   y1="250"
   x1="285" />
<line
   id="line36"
   stroke="#0000ff"
   fill="none"
   y2="350"
   x2="153"
   y1="350"
   x1="150" />
<line
   id="line38"
   stroke="#0000ff"
   fill="none"
   y2="350"
   x2="162"
   y1="350"
   x1="159" />
<line
   id="line40"
   stroke="#0000ff"
   fill="none"
   y2="350"
   x2="171"
   y1="350"
   x1="168" />
<line
   id="line42"
   stroke="#0000ff"
   fill="none"
   y2="350"
   x2="180"
   y1="350"
   x1="177" />
<line
   id="line44"
   stroke="#0000ff"
   fill="none"
   y2="350"
   x2="189"
   y1="350"
   x1="186" />
<line
   id="line46"
   stroke="#0000ff"
   fill="none"
   y2="350"
   x2="198"
   y1="350"
   x1="195" />
<line
   id="line48"
   stroke="#0000ff"
   fill="none"
   y2="350"
   x2="207"
   y1="350"
   x1="204" />
<line
   id="line50"
   stroke="#0000ff"
   fill="none"
   y2="350"
   x2="216"
   y1="350"
   x1="213" />
<line
   id="line52"
   stroke="#0000ff"
   fill="none"
   y2="350"
   x2="225"
   y1="350"
   x1="222" />
<line
   id="line54"
   stroke="#0000ff"
   fill="none"
   y2="350"
   x2="234"
   y1="350"
   x1="231" />
<line
   id="line56"
   stroke="#0000ff"
   fill="none"
   y2="350"
   x2="243"
   y1="350"
   x1="240" />
<line
   id="line58"
   stroke="#0000ff"
   fill="none"
   y2="350"
   x2="252"
   y1="350"
   x1="249" />
<line
   id="line60"
   stroke="#0000ff"
   fill="none"
   y2="350"
   x2="261"
   y1="350"
   x1="258" />
<line
   id="line62"
   stroke="#0000ff"
   fill="none"
   y2="350"
   x2="270"
   y1="350"
   x1="267" />
<line
   id="line64"
   stroke="#0000ff"
   fill="none"
   y2="350"
   x2="279"
   y1="350"
   x1="276" />
<line
   id="line66"
   stroke="#0000ff"
   fill="none"
   y2="350"
   x2="288"
   y1="350"
   x1="285" />
<line
   id="line68"
   stroke="#0000ff"
   fill="none"
   y2="450"
   x2="153"
   y1="450"
   x1="150" />
<line
   id="line70"
   stroke="#0000ff"
   fill="none"
   y2="450"
   x2="162"
   y1="450"
   x1="159" />
<line
   id="line72"
   stroke="#0000ff"
   fill="none"
   y2="450"
   x2="171"
   y1="450"
   x1="168" />
<line
   id="line74"
   stroke="#0000ff"
   fill="none"
   y2="450"
   x2="180"
   y1="450"
   x1="177" />
<line
   id="line76"
   stroke="#0000ff"
   fill="none"
   y2="450"
   x2="189"
   y1="450"
   x1="186" />
<line
   id="line78"
   stroke="#0000ff"
   fill="none"
   y2="450"
   x2="198"
   y1="450"
   x1="195" />
<line
   id="line80"
   stroke="#0000ff"
   fill="none"
   y2="450"
   x2="207"
   y1="450"
   x1="204" />
<line
   id="line82"
   stroke="#0000ff"
   fill="none"
   y2="450"
   x2="216"
   y1="450"
   x1="213" />
<line
   id="line84"
   stroke="#0000ff"
   fill="none"
   y2="450"
   x2="225"
   y1="450"
   x1="222" />
<line
   id="line86"
   stroke="#0000ff"
   fill="none"
   y2="450"
   x2="234"
   y1="450"
   x1="231" />
<line
   id="line88"
   stroke="#0000ff"
   fill="none"
   y2="450"
   x2="243"
   y1="450"
   x1="240" />
<line
   id="line90"
   stroke="#0000ff"
   fill="none"
   y2="450"
   x2="252"
   y1="450"
   x1="249" />
<line
   id="line92"
   stroke="#0000ff"
   fill="none"
   y2="450"
   x2="261"
   y1="450"
   x1="258" />
<line
   id="line94"
   stroke="#0000ff"
   fill="none"
   y2="450"
   x2="270"
   y1="450"
   x1="267" />
<line
   id="line96"
   stroke="#0000ff"
   fill="none"
   y2="450"
   x2="279"
   y1="450"
   x1="276" />
<line
   id="line98"
   stroke="#0000ff"
   fill="none"
   y2="450"
   x2="288"
   y1="450"
   x1="285" />
<line
   id="line100"
   stroke="#0000ff"
   fill="none"
   y2="550"
   x2="153"
   y1="550"
   x1="150" />
<line
   id="line102"
   stroke="#0000ff"
   fill="none"
   y2="550"
   x2="162"
   y1="550"
   x1="159" />
<line
   id="line104"
   stroke="#0000ff"
   fill="none"
   y2="550"
   x2="171"
   y1="550"
   x1="168" />
<line
   id="line106"
   stroke="#0000ff"
   fill="none"
   y2="550"
   x2="180"
   y1="550"
   x1="177" />
<line
   id="line108"
   stroke="#0000ff"
   fill="none"
   y2="550"
   x2="189"
   y1="550"
   x1="186" />
<line
   id="line110"
   stroke="#0000ff"
   fill="none"
   y2="550"
   x2="198"
   y1="550"
   x1="195" />
<line
   id="line112"
   stroke="#0000ff"
   fill="none"
   y2="550"
   x2="207"
   y1="550"
   x1="204" />
<line
   id="line114"
   stroke="#0000ff"
   fill="none"
   y2="550"
   x2="216"
   y1="550"
   x1="213" />
<line
   id="line116"
   stroke="#0000ff"
   fill="none"
   y2="550"
   x2="225"
   y1="550"
   x1="222" />
<line
   id="line118"
   stroke="#0000ff"
   fill="none"
   y2="550"
   x2="234"
   y1="550"
   x1="231" />
<line
   id="line120"
   stroke="#0000ff"
   fill="none"
   y2="550"
   x2="243"
   y1="550"
   x1="240" />
<line
   id="line122"
   stroke="#0000ff"
   fill="none"
   y2="550"
   x2="252"
   y1="550"
   x1="249" />
<line
   id="line124"
   stroke="#0000ff"
   fill="none"
   y2="550"
   x2="261"
   y1="550"
   x1="258" />
<line
   id="line126"
   stroke="#0000ff"
   fill="none"
   y2="550"
   x2="270"
   y1="550"
   x1="267" />
<line
   id="line128"
   stroke="#0000ff"
   fill="none"
   y2="550"
   x2="279"
   y1="550"
   x1="276" />
<line
   id="line130"
   stroke="#0000ff"
   fill="none"
   y2="550"
   x2="288"
   y1="550"
   x1="285" />
<line
   id="line132"
   stroke="#0000ff"
   fill="none"
   y2="650"
   x2="153"
   y1="650"
   x1="150" />
<line
   id="line134"
   stroke="#0000ff"
   fill="none"
   y2="650"
   x2="162"
   y1="650"
   x1="159" />
<line
   id="line136"
   stroke="#0000ff"
   fill="none"
   y2="650"
   x2="171"
   y1="650"
   x1="168" />
<line
   id="line138"
   stroke="#0000ff"
   fill="none"
   y2="650"
   x2="180"
   y1="650"
   x1="177" />
<line
   id="line140"
   stroke="#0000ff"
   fill="none"
   y2="650"
   x2="189"
   y1="650"
   x1="186" />
<line
   id="line142"
   stroke="#0000ff"
   fill="none"
   y2="650"
   x2="198"
   y1="650"
   x1="195" />
<line
   id="line144"
   stroke="#0000ff"
   fill="none"
   y2="650"
   x2="207"
   y1="650"
   x1="204" />
<line
   id="line146"
   stroke="#0000ff"
   fill="none"
   y2="650"
   x2="216"
   y1="650"
   x1="213" />
<line
   id="line148"
   stroke="#0000ff"
   fill="none"
   y2="650"
   x2="225"
   y1="650"
   x1="222" />
<line
   id="line150"
   stroke="#0000ff"
   fill="none"
   y2="650"
   x2="234"
   y1="650"
   x1="231" />
<line
   id="line152"
   stroke="#0000ff"
   fill="none"
   y2="650"
   x2="243"
   y1="650"
   x1="240" />
<line
   id="line154"
   stroke="#0000ff"
   fill="none"
   y2="650"
   x2="252"
   y1="650"
   x1="249" />
<line
   id="line156"
   stroke="#0000ff"
   fill="none"
   y2="650"
   x2="261"
   y1="650"
   x1="258" />
<line
   id="line158"
   stroke="#0000ff"
   fill="none"
   y2="650"
   x2="270"
   y1="650"
   x1="267" />
<line
   id="line160"
   stroke="#0000ff"
   fill="none"
   y2="650"
   x2="279"
   y1="650"
   x1="276" />
<line
   id="line162"
   stroke="#0000ff"
   fill="none"
   y2="650"
   x2="288"
   y1="650"
   x1="285" />
<line
   id="line164"
   stroke="#00ff00"
   y2="650"
   x2="150"
   y1="150"
   x1="150" />
<line
   id="line166"
   stroke="#0000ff"
   fill="none"
   y2="153"
   x2="300"
   y1="150"
   x1="300" />
<line
   id="line168"
   stroke="#0000ff"
   fill="none"
   y2="162"
   x2="300"
   y1="159"
   x1="300" />
<line
   id="line170"
   stroke="#0000ff"
   fill="none"
   y2="171"
   x2="300"
   y1="168"
   x1="300" />
<line
   id="line172"
   stroke="#0000ff"
   fill="none"
   y2="180"
   x2="300"
   y1="177"
   x1="300" />
<line
   id="line174"
   stroke="#0000ff"
   fill="none"
   y2="189"
   x2="300"
   y1="186"
   x1="300" />
<line
   id="line176"
   stroke="#0000ff"
   fill="none"
   y2="198"
   x2="300"
   y1="195"
   x1="300" />
<line
   id="line178"
   stroke="#0000ff"
   fill="none"
   y2="207"
   x2="300"
   y1="204"
   x1="300" />
<line
   id="line180"
   stroke="#0000ff"
   fill="none"
   y2="216"
   x2="300"
   y1="213"
   x1="300" />
<line
   id="line182"
   stroke="#0000ff"
   fill="none"
   y2="225"
   x2="300"
   y1="222"
   x1="300" />
<line
   id="line184"
   stroke="#0000ff"
   fill="none"
   y2="234"
   x2="300"
   y1="231"
   x1="300" />
<line
   id="line186"
   stroke="#0000ff"
   fill="none"
   y2="243"
   x2="300"
   y1="240"
   x1="300" />
<line
   id="line188"
   stroke="#0000ff"
   fill="none"
   y2="252"
   x2="300"
   y1="249"
   x1="300" />
<line
   id="line190"
   stroke="#0000ff"
   fill="none"
   y2="261"
   x2="300"
   y1="258"
   x1="300" />
<line
   id="line192"
   stroke="#0000ff"
   fill="none"
   y2="270"
   x2="300"
   y1="267"
   x1="300" />
<line
   id="line194"
   stroke="#0000ff"
   fill="none"
   y2="279"
   x2="300"
   y1="276"
   x1="300" />
<line
   id="line196"
   stroke="#0000ff"
   fill="none"
   y2="288"
   x2="300"
   y1="285"
   x1="300" />
<line
   id="line198"
   stroke="#0000ff"
   fill="none"
   y2="297"
   x2="300"
   y1="294"
   x1="300" />
<line
   id="line200"
   stroke="#0000ff"
   fill="none"
   y2="306"
   x2="300"
   y1="303"
   x1="300" />
<line
   id="line202"
   stroke="#0000ff"
   fill="none"
   y2="315"
   x2="300"
   y1="312"
   x1="300" />
<line
   id="line204"
   stroke="#0000ff"
   fill="none"
   y2="324"
   x2="300"
   y1="321"
   x1="300" />
<line
   id="line206"
   stroke="#0000ff"
   fill="none"
   y2="333"
   x2="300"
   y1="330"
   x1="300" />
<line
   id="line208"
   stroke="#0000ff"
   fill="none"
   y2="342"
   x2="300"
   y1="339"
   x1="300" />
<line
   id="line210"
   stroke="#0000ff"
   fill="none"
   y2="351"
   x2="300"
   y1="348"
   x1="300" />
<line
   id="line212"
   stroke="#0000ff"
   fill="none"
   y2="360"
   x2="300"
   y1="357"
   x1="300" />
<line
   id="line214"
   stroke="#0000ff"
   fill="none"
   y2="369"
   x2="300"
   y1="366"
   x1="300" />
<line
   id="line216"
   stroke="#0000ff"
   fill="none"
   y2="378"
   x2="300"
   y1="375"
   x1="300" />
<line
   id="line218"
   stroke="#0000ff"
   fill="none"
   y2="387"
   x2="300"
   y1="384"
   x1="300" />
<line
   id="line220"
   stroke="#0000ff"
   fill="none"
   y2="396"
   x2="300"
   y1="393"
   x1="300" />
<line
   id="line222"
   stroke="#0000ff"
   fill="none"
   y2="405"
   x2="300"
   y1="402"
   x1="300" />
<line
   id="line224"
   stroke="#0000ff"
   fill="none"
   y2="414"
   x2="300"
   y1="411"
   x1="300" />
<line
   id="line226"
   stroke="#0000ff"
   fill="none"
   y2="423"
   x2="300"
   y1="420"
   x1="300" />
<line
   id="line228"
   stroke="#0000ff"
   fill="none"
   y2="432"
   x2="300"
   y1="429"
   x1="300" />
<line
   id="line230"
   stroke="#0000ff"
   fill="none"
   y2="441"
   x2="300"
   y1="438"
   x1="300" />
<line
   id="line232"
   stroke="#0000ff"
   fill="none"
   y2="450"
   x2="300"
   y1="447"
   x1="300" />
<line
   id="line234"
   stroke="#0000ff"
   fill="none"
   y2="459"
   x2="300"
   y1="456"
   x1="300" />
<line
   id="line236"
   stroke="#0000ff"
   fill="none"
   y2="468"
   x2="300"
   y1="465"
   x1="300" />
<line
   id="line238"
   stroke="#0000ff"
   fill="none"
   y2="477"
   x2="300"
   y1="474"
   x1="300" />
<line
   id="line240"
   stroke="#0000ff"
   fill="none"
   y2="486"
   x2="300"
   y1="483"
   x1="300" />
<line
   id="line242"
   stroke="#0000ff"
   fill="none"
   y2="495"
   x2="300"
   y1="492"
   x1="300" />
<line
   id="line244"
   stroke="#0000ff"
   fill="none"
   y2="504"
   x2="300"
   y1="501"
   x1="300" />
<line
   id="line246"
   stroke="#0000ff"
   fill="none"
   y2="513"
   x2="300"
   y1="510"
   x1="300" />
<line
   id="line248"
   stroke="#0000ff"
   fill="none"
   y2="522"
   x2="300"
   y1="519"
   x1="300" />
<line
   id="line250"
   stroke="#0000ff"
   fill="none"
   y2="531"
   x2="300"
   y1="528"
   x1="300" />
<line
   id="line252"
   stroke="#0000ff"
   fill="none"
   y2="540"
   x2="300"
   y1="537"
   x1="300" />
<line
   id="line254"
   stroke="#0000ff"
   fill="none"
   y2="549"
   x2="300"
   y1="546"
   x1="300" />
<line
   id="line256"
   stroke="#0000ff"
   fill="none"
   y2="558"
   x2="300"
   y1="555"
   x1="300" />
<line
   id="line258"
   stroke="#0000ff"
   fill="none"
   y2="567"
   x2="300"
   y1="564"
   x1="300" />
<line
   id="line260"
   stroke="#0000ff"
   fill="none"
   y2="576"
   x2="300"
   y1="573"
   x1="300" />
<line
   id="line262"
   stroke="#0000ff"
   fill="none"
   y2="585"
   x2="300"
   y1="582"
   x1="300" />
<line
   id="line264"
   stroke="#0000ff"
   fill="none"
   y2="594"
   x2="300"
   y1="591"
   x1="300" />
<line
   id="line266"
   stroke="#0000ff"
   fill="none"
   y2="603"
   x2="300"
   y1="600"
   x1="300" />
<line
   id="line268"
   stroke="#0000ff"
   fill="none"
   y2="612"
   x2="300"
   y1="609"
   x1="300" />
<line
   id="line270"
   stroke="#0000ff"
   fill="none"
   y2="621"
   x2="300"
   y1="618"
   x1="300" />
<line
   id="line272"
   stroke="#0000ff"
   fill="none"
   y2="630"
   x2="300"
   y1="627"
   x1="300" />
<line
   id="line274"
   stroke="#0000ff"
   fill="none"
   y2="639"
   x2="300"
   y1="636"
   x1="300" />
<polyline
   id="polyline276"
   stroke="#00ff00"
   fill="none"
   points=" 150,650 157.5,680.0 292.5,680.0 300,650" />
<line
   id="line278"
   stroke="#00ff00"
   y2="150"
   x2="368.81909"
   y1="150"
   x1="300" />
<line
   id="line280"
   stroke="#00ff00"
   y2="650"
   x2="368.81909"
   y1="150"
   x1="368.81909" />
<line
   id="line282"
   stroke="#00ff00"
   y2="680"
   x2="313.76382"
   y1="650"
   x1="300" />
<line
   id="line284"
   stroke="#00ff00"
   y2="680"
   x2="355.05527"
   y1="680"
   x1="313.76382" />
<line
   id="line286"
   stroke="#00ff00"
   y2="650"
   x2="368.81909"
   y1="680"
   x1="355.05527" />
<line
   id="line288"
   stroke="#0000ff"
   fill="none"
   y2="250"
   x2="303"
   y1="250"
   x1="300" />
<line
   id="line290"
   stroke="#0000ff"
   fill="none"
   y2="250"
   x2="312"
   y1="250"
   x1="309" />
<line
   id="line292"
   stroke="#0000ff"
   fill="none"
   y2="250"
   x2="321"
   y1="250"
   x1="318" />
<line
   id="line294"
   stroke="#0000ff"
   fill="none"
   y2="250"
   x2="330"
   y1="250"
   x1="327" />
<line
   id="line296"
   stroke="#0000ff"
   fill="none"
   y2="250"
   x2="339"
   y1="250"
   x1="336" />
<line
   id="line298"
   stroke="#0000ff"
   fill="none"
   y2="250"
   x2="348"
   y1="250"
   x1="345" />
<line
   id="line300"
   stroke="#0000ff"
   fill="none"
   y2="250"
   x2="357"
   y1="250"
   x1="354" />
<line
   id="line302"
   stroke="#0000ff"
   fill="none"
   y2="151"
   x2="302"
   y1="150"
   x1="300" />
<line
   id="line304"
   stroke="#0000ff"
   fill="none"
   y2="157"
   x2="309"
   y1="155"
   x1="307" />
<line
   id="line306"
   stroke="#0000ff"
   fill="none"
   y2="162"
   x2="316"
   y1="160"
   x1="314" />
<line
   id="line308"
   stroke="#0000ff"
   fill="none"
   y2="167"
   x2="324"
   y1="165"
   x1="321" />
<line
   id="line310"
   stroke="#0000ff"
   fill="none"
   y2="172"
   x2="331"
   y1="171"
   x1="329" />
<line
   id="line312"
   stroke="#0000ff"
   fill="none"
   y2="178"
   x2="338"
   y1="176"
   x1="336" />
<line
   id="line314"
   stroke="#0000ff"
   fill="none"
   y2="183"
   x2="346"
   y1="181"
   x1="343" />
<line
   id="line316"
   stroke="#0000ff"
   fill="none"
   y2="188"
   x2="353"
   y1="187"
   x1="350" />
<line
   id="line318"
   stroke="#0000ff"
   fill="none"
   y2="194"
   x2="360"
   y1="192"
   x1="358" />
<line
   id="line320"
   stroke="#0000ff"
   fill="none"
   y2="350"
   x2="303"
   y1="350"
   x1="300" />
<line
   id="line322"
   stroke="#0000ff"
   fill="none"
   y2="350"
   x2="312"
   y1="350"
   x1="309" />
<line
   id="line324"
   stroke="#0000ff"
   fill="none"
   y2="350"
   x2="321"
   y1="350"
   x1="318" />
<line
   id="line326"
   stroke="#0000ff"
   fill="none"
   y2="350"
   x2="330"
   y1="350"
   x1="327" />
<line
   id="line328"
   stroke="#0000ff"
   fill="none"
   y2="350"
   x2="339"
   y1="350"
   x1="336" />
<line
   id="line330"
   stroke="#0000ff"
   fill="none"
   y2="350"
   x2="348"
   y1="350"
   x1="345" />
<line
   id="line332"
   stroke="#0000ff"
   fill="none"
   y2="350"
   x2="357"
   y1="350"
   x1="354" />
<line
   id="line334"
   stroke="#0000ff"
   fill="none"
   y2="251"
   x2="302"
   y1="250"
   x1="300" />
<line
   id="line336"
   stroke="#0000ff"
   fill="none"
   y2="257"
   x2="309"
   y1="255"
   x1="307" />
<line
   id="line338"
   stroke="#0000ff"
   fill="none"
   y2="262"
   x2="316"
   y1="260"
   x1="314" />
<line
   id="line340"
   stroke="#0000ff"
   fill="none"
   y2="267"
   x2="324"
   y1="265"
   x1="321" />
<line
   id="line342"
   stroke="#0000ff"
   fill="none"
   y2="272"
   x2="331"
   y1="271"
   x1="329" />
<line
   id="line344"
   stroke="#0000ff"
   fill="none"
   y2="278"
   x2="338"
   y1="276"
   x1="336" />
<line
   id="line346"
   stroke="#0000ff"
   fill="none"
   y2="283"
   x2="346"
   y1="281"
   x1="343" />
<line
   id="line348"
   stroke="#0000ff"
   fill="none"
   y2="288"
   x2="353"
   y1="287"
   x1="350" />
<line
   id="line350"
   stroke="#0000ff"
   fill="none"
   y2="294"
   x2="360"
   y1="292"
   x1="358" />
<line
   id="line352"
   stroke="#0000ff"
   fill="none"
   y2="450"
   x2="303"
   y1="450"
   x1="300" />
<line
   id="line354"
   stroke="#0000ff"
   fill="none"
   y2="450"
   x2="312"
   y1="450"
   x1="309" />
<line
   id="line356"
   stroke="#0000ff"
   fill="none"
   y2="450"
   x2="321"
   y1="450"
   x1="318" />
<line
   id="line358"
   stroke="#0000ff"
   fill="none"
   y2="450"
   x2="330"
   y1="450"
   x1="327" />
<line
   id="line360"
   stroke="#0000ff"
   fill="none"
   y2="450"
   x2="339"
   y1="450"
   x1="336" />
<line
   id="line362"
   stroke="#0000ff"
   fill="none"
   y2="450"
   x2="348"
   y1="450"
   x1="345" />
<line
   id="line364"
   stroke="#0000ff"
   fill="none"
   y2="450"
   x2="357"
   y1="450"
   x1="354" />
<line
   id="line366"
   stroke="#0000ff"
   fill="none"
   y2="351"
   x2="302"
   y1="350"
   x1="300" />
<line
   id="line368"
   stroke="#0000ff"
   fill="none"
   y2="357"
   x2="309"
   y1="355"
   x1="307" />
<line
   id="line370"
   stroke="#0000ff"
   fill="none"
   y2="362"
   x2="316"
   y1="360"
   x1="314" />
<line
   id="line372"
   stroke="#0000ff"
   fill="none"
   y2="367"
   x2="324"
   y1="365"
   x1="321" />
<line
   id="line374"
   stroke="#0000ff"
   fill="none"
   y2="372"
   x2="331"
   y1="371"
   x1="329" />
<line
   id="line376"
   stroke="#0000ff"
   fill="none"
   y2="378"
   x2="338"
   y1="376"
   x1="336" />
<line
   id="line378"
   stroke="#0000ff"
   fill="none"
   y2="383"
   x2="346"
   y1="381"
   x1="343" />
<line
   id="line380"
   stroke="#0000ff"
   fill="none"
   y2="388"
   x2="353"
   y1="387"
   x1="350" />
<line
   id="line382"
   stroke="#0000ff"
   fill="none"
   y2="394"
   x2="360"
   y1="392"
   x1="358" />
<line
   id="line384"
   stroke="#0000ff"
   fill="none"
   y2="550"
   x2="303"
   y1="550"
   x1="300" />
<line
   id="line386"
   stroke="#0000ff"
   fill="none"
   y2="550"
   x2="312"
   y1="550"
   x1="309" />
<line
   id="line388"
   stroke="#0000ff"
   fill="none"
   y2="550"
   x2="321"
   y1="550"
   x1="318" />
<line
   id="line390"
   stroke="#0000ff"
   fill="none"
   y2="550"
   x2="330"
   y1="550"
   x1="327" />
<line
   id="line392"
   stroke="#0000ff"
   fill="none"
   y2="550"
   x2="339"
   y1="550"
   x1="336" />
<line
   id="line394"
   stroke="#0000ff"
   fill="none"
   y2="550"
   x2="348"
   y1="550"
   x1="345" />
<line
   id="line396"
   stroke="#0000ff"
   fill="none"
   y2="550"
   x2="357"
   y1="550"
   x1="354" />
<line
   id="line398"
   stroke="#0000ff"
   fill="none"
   y2="451"
   x2="302"
   y1="450"
   x1="300" />
<line
   id="line400"
   stroke="#0000ff"
   fill="none"
   y2="457"
   x2="309"
   y1="455"
   x1="307" />
<line
   id="line402"
   stroke="#0000ff"
   fill="none"
   y2="462"
   x2="316"
   y1="460"
   x1="314" />
<line
   id="line404"
   stroke="#0000ff"
   fill="none"
   y2="467"
   x2="324"
   y1="465"
   x1="321" />
<line
   id="line406"
   stroke="#0000ff"
   fill="none"
   y2="472"
   x2="331"
   y1="471"
   x1="329" />
<line
   id="line408"
   stroke="#0000ff"
   fill="none"
   y2="478"
   x2="338"
   y1="476"
   x1="336" />
<line
   id="line410"
   stroke="#0000ff"
   fill="none"
   y2="483"
   x2="346"
   y1="481"
   x1="343" />
<line
   id="line412"
   stroke="#0000ff"
   fill="none"
   y2="488"
   x2="353"
   y1="487"
   x1="350" />
<line
   id="line414"
   stroke="#0000ff"
   fill="none"
   y2="494"
   x2="360"
   y1="492"
   x1="358" />
<line
   id="line416"
   stroke="#0000ff"
   fill="none"
   y2="650"
   x2="303"
   y1="650"
   x1="300" />
<line
   id="line418"
   stroke="#0000ff"
   fill="none"
   y2="650"
   x2="312"
   y1="650"
   x1="309" />
<line
   id="line420"
   stroke="#0000ff"
   fill="none"
   y2="650"
   x2="321"
   y1="650"
   x1="318" />
<line
   id="line422"
   stroke="#0000ff"
   fill="none"
   y2="650"
   x2="330"
   y1="650"
   x1="327" />
<line
   id="line424"
   stroke="#0000ff"
   fill="none"
   y2="650"
   x2="339"
   y1="650"
   x1="336" />
<line
   id="line426"
   stroke="#0000ff"
   fill="none"
   y2="650"
   x2="348"
   y1="650"
   x1="345" />
<line
   id="line428"
   stroke="#0000ff"
   fill="none"
   y2="650"
   x2="357"
   y1="650"
   x1="354" />
<line
   id="line430"
   stroke="#0000ff"
   fill="none"
   y2="551"
   x2="302"
   y1="550"
   x1="300" />
<line
   id="line432"
   stroke="#0000ff"
   fill="none"
   y2="557"
   x2="309"
   y1="555"
   x1="307" />
<line
   id="line434"
   stroke="#0000ff"
   fill="none"
   y2="562"
   x2="316"
   y1="560"
   x1="314" />
<line
   id="line436"
   stroke="#0000ff"
   fill="none"
   y2="567"
   x2="324"
   y1="565"
   x1="321" />
<line
   id="line438"
   stroke="#0000ff"
   fill="none"
   y2="572"
   x2="331"
   y1="571"
   x1="329" />
<line
   id="line440"
   stroke="#0000ff"
   fill="none"
   y2="578"
   x2="338"
   y1="576"
   x1="336" />
<line
   id="line442"
   stroke="#0000ff"
   fill="none"
   y2="583"
   x2="346"
   y1="581"
   x1="343" />
<line
   id="line444"
   stroke="#0000ff"
   fill="none"
   y2="588"
   x2="353"
   y1="587"
   x1="350" />
<line
   id="line446"
   stroke="#0000ff"
   fill="none"
   y2="594"
   x2="360"
   y1="592"
   x1="358" />
</g>
  <g
     transform="matrix(0.96227985,0,0,0.96227985,-92.908733,-112.21826)"
     id="g840">/n<line
   id="line450"
   stroke="#00ff00"
   y2="150"
   x2="470.88367"
   y1="150"
   x1="380.88367" />
<line
   id="line452"
   stroke="#0000ff"
   fill="none"
   y2="253"
   x2="383"
   y1="253"
   x1="380" />
<line
   id="line454"
   stroke="#0000ff"
   fill="none"
   y2="253"
   x2="392"
   y1="253"
   x1="389" />
<line
   id="line456"
   stroke="#0000ff"
   fill="none"
   y2="253"
   x2="401"
   y1="253"
   x1="398" />
<line
   id="line458"
   stroke="#0000ff"
   fill="none"
   y2="253"
   x2="410"
   y1="253"
   x1="407" />
<line
   id="line460"
   stroke="#0000ff"
   fill="none"
   y2="253"
   x2="419"
   y1="253"
   x1="416" />
<line
   id="line462"
   stroke="#0000ff"
   fill="none"
   y2="253"
   x2="428"
   y1="253"
   x1="425" />
<line
   id="line464"
   stroke="#0000ff"
   fill="none"
   y2="253"
   x2="437"
   y1="253"
   x1="434" />
<line
   id="line466"
   stroke="#0000ff"
   fill="none"
   y2="253"
   x2="446"
   y1="253"
   x1="443" />
<line
   id="line468"
   stroke="#0000ff"
   fill="none"
   y2="253"
   x2="455"
   y1="253"
   x1="452" />
<line
   id="line470"
   stroke="#0000ff"
   fill="none"
   y2="253"
   x2="464"
   y1="253"
   x1="461" />
<line
   id="line472"
   stroke="#0000ff"
   fill="none"
   y2="356"
   x2="383"
   y1="356"
   x1="380" />
<line
   id="line474"
   stroke="#0000ff"
   fill="none"
   y2="356"
   x2="392"
   y1="356"
   x1="389" />
<line
   id="line476"
   stroke="#0000ff"
   fill="none"
   y2="356"
   x2="401"
   y1="356"
   x1="398" />
<line
   id="line478"
   stroke="#0000ff"
   fill="none"
   y2="356"
   x2="410"
   y1="356"
   x1="407" />
<line
   id="line480"
   stroke="#0000ff"
   fill="none"
   y2="356"
   x2="419"
   y1="356"
   x1="416" />
<line
   id="line482"
   stroke="#0000ff"
   fill="none"
   y2="356"
   x2="428"
   y1="356"
   x1="425" />
<line
   id="line484"
   stroke="#0000ff"
   fill="none"
   y2="356"
   x2="437"
   y1="356"
   x1="434" />
<line
   id="line486"
   stroke="#0000ff"
   fill="none"
   y2="356"
   x2="446"
   y1="356"
   x1="443" />
<line
   id="line488"
   stroke="#0000ff"
   fill="none"
   y2="356"
   x2="455"
   y1="356"
   x1="452" />
<line
   id="line490"
   stroke="#0000ff"
   fill="none"
   y2="356"
   x2="464"
   y1="356"
   x1="461" />
<line
   id="line492"
   stroke="#0000ff"
   fill="none"
   y2="459"
   x2="383"
   y1="459"
   x1="380" />
<line
   id="line494"
   stroke="#0000ff"
   fill="none"
   y2="459"
   x2="392"
   y1="459"
   x1="389" />
<line
   id="line496"
   stroke="#0000ff"
   fill="none"
   y2="459"
   x2="401"
   y1="459"
   x1="398" />
<line
   id="line498"
   stroke="#0000ff"
   fill="none"
   y2="459"
   x2="410"
   y1="459"
   x1="407" />
<line
   id="line500"
   stroke="#0000ff"
   fill="none"
   y2="459"
   x2="419"
   y1="459"
   x1="416" />
<line
   id="line502"
   stroke="#0000ff"
   fill="none"
   y2="459"
   x2="428"
   y1="459"
   x1="425" />
<line
   id="line504"
   stroke="#0000ff"
   fill="none"
   y2="459"
   x2="437"
   y1="459"
   x1="434" />
<line
   id="line506"
   stroke="#0000ff"
   fill="none"
   y2="459"
   x2="446"
   y1="459"
   x1="443" />
<line
   id="line508"
   stroke="#0000ff"
   fill="none"
   y2="459"
   x2="455"
   y1="459"
   x1="452" />
<line
   id="line510"
   stroke="#0000ff"
   fill="none"
   y2="459"
   x2="464"
   y1="459"
   x1="461" />
<line
   id="line512"
   stroke="#0000ff"
   fill="none"
   y2="562"
   x2="383"
   y1="562"
   x1="380" />
<line
   id="line514"
   stroke="#0000ff"
   fill="none"
   y2="562"
   x2="392"
   y1="562"
   x1="389" />
<line
   id="line516"
   stroke="#0000ff"
   fill="none"
   y2="562"
   x2="401"
   y1="562"
   x1="398" />
<line
   id="line518"
   stroke="#0000ff"
   fill="none"
   y2="562"
   x2="410"
   y1="562"
   x1="407" />
<line
   id="line520"
   stroke="#0000ff"
   fill="none"
   y2="562"
   x2="419"
   y1="562"
   x1="416" />
<line
   id="line522"
   stroke="#0000ff"
   fill="none"
   y2="562"
   x2="428"
   y1="562"
   x1="425" />
<line
   id="line524"
   stroke="#0000ff"
   fill="none"
   y2="562"
   x2="437"
   y1="562"
   x1="434" />
<line
   id="line526"
   stroke="#0000ff"
   fill="none"
   y2="562"
   x2="446"
   y1="562"
   x1="443" />
<line
   id="line528"
   stroke="#0000ff"
   fill="none"
   y2="562"
   x2="455"
   y1="562"
   x1="452" />
<line
   id="line530"
   stroke="#0000ff"
   fill="none"
   y2="562"
   x2="464"
   y1="562"
   x1="461" />
<line
   id="line532"
   stroke="#0000ff"
   fill="none"
   y2="665"
   x2="383"
   y1="665"
   x1="380" />
<line
   id="line534"
   stroke="#0000ff"
   fill="none"
   y2="665"
   x2="392"
   y1="665"
   x1="389" />
<line
   id="line536"
   stroke="#0000ff"
   fill="none"
   y2="665"
   x2="401"
   y1="665"
   x1="398" />
<line
   id="line538"
   stroke="#0000ff"
   fill="none"
   y2="665"
   x2="410"
   y1="665"
   x1="407" />
<line
   id="line540"
   stroke="#0000ff"
   fill="none"
   y2="665"
   x2="419"
   y1="665"
   x1="416" />
<line
   id="line542"
   stroke="#0000ff"
   fill="none"
   y2="665"
   x2="428"
   y1="665"
   x1="425" />
<line
   id="line544"
   stroke="#0000ff"
   fill="none"
   y2="665"
   x2="437"
   y1="665"
   x1="434" />
<line
   id="line546"
   stroke="#0000ff"
   fill="none"
   y2="665"
   x2="446"
   y1="665"
   x1="443" />
<line
   id="line548"
   stroke="#0000ff"
   fill="none"
   y2="665"
   x2="455"
   y1="665"
   x1="452" />
<line
   id="line550"
   stroke="#0000ff"
   fill="none"
   y2="665"
   x2="464"
   y1="665"
   x1="461" />
<line
   id="line552"
   stroke="#00ff00"
   y2="665"
   x2="380.88367"
   y1="150"
   x1="380.88367" />
<line
   id="line554"
   stroke="#0000ff"
   fill="none"
   y2="153"
   x2="470"
   y1="150"
   x1="470" />
<line
   id="line556"
   stroke="#0000ff"
   fill="none"
   y2="162"
   x2="470"
   y1="159"
   x1="470" />
<line
   id="line558"
   stroke="#0000ff"
   fill="none"
   y2="171"
   x2="470"
   y1="168"
   x1="470" />
<line
   id="line560"
   stroke="#0000ff"
   fill="none"
   y2="180"
   x2="470"
   y1="177"
   x1="470" />
<line
   id="line562"
   stroke="#0000ff"
   fill="none"
   y2="189"
   x2="470"
   y1="186"
   x1="470" />
<line
   id="line564"
   stroke="#0000ff"
   fill="none"
   y2="198"
   x2="470"
   y1="195"
   x1="470" />
<line
   id="line566"
   stroke="#0000ff"
   fill="none"
   y2="207"
   x2="470"
   y1="204"
   x1="470" />
<line
   id="line568"
   stroke="#0000ff"
   fill="none"
   y2="216"
   x2="470"
   y1="213"
   x1="470" />
<line
   id="line570"
   stroke="#0000ff"
   fill="none"
   y2="225"
   x2="470"
   y1="222"
   x1="470" />
<line
   id="line572"
   stroke="#0000ff"
   fill="none"
   y2="234"
   x2="470"
   y1="231"
   x1="470" />
<line
   id="line574"
   stroke="#0000ff"
   fill="none"
   y2="243"
   x2="470"
   y1="240"
   x1="470" />
<line
   id="line576"
   stroke="#0000ff"
   fill="none"
   y2="252"
   x2="470"
   y1="249"
   x1="470" />
<line
   id="line578"
   stroke="#0000ff"
   fill="none"
   y2="261"
   x2="470"
   y1="258"
   x1="470" />
<line
   id="line580"
   stroke="#0000ff"
   fill="none"
   y2="270"
   x2="470"
   y1="267"
   x1="470" />
<line
   id="line582"
   stroke="#0000ff"
   fill="none"
   y2="279"
   x2="470"
   y1="276"
   x1="470" />
<line
   id="line584"
   stroke="#0000ff"
   fill="none"
   y2="288"
   x2="470"
   y1="285"
   x1="470" />
<line
   id="line586"
   stroke="#0000ff"
   fill="none"
   y2="297"
   x2="470"
   y1="294"
   x1="470" />
<line
   id="line588"
   stroke="#0000ff"
   fill="none"
   y2="306"
   x2="470"
   y1="303"
   x1="470" />
<line
   id="line590"
   stroke="#0000ff"
   fill="none"
   y2="315"
   x2="470"
   y1="312"
   x1="470" />
<line
   id="line592"
   stroke="#0000ff"
   fill="none"
   y2="324"
   x2="470"
   y1="321"
   x1="470" />
<line
   id="line594"
   stroke="#0000ff"
   fill="none"
   y2="333"
   x2="470"
   y1="330"
   x1="470" />
<line
   id="line596"
   stroke="#0000ff"
   fill="none"
   y2="342"
   x2="470"
   y1="339"
   x1="470" />
<line
   id="line598"
   stroke="#0000ff"
   fill="none"
   y2="351"
   x2="470"
   y1="348"
   x1="470" />
<line
   id="line600"
   stroke="#0000ff"
   fill="none"
   y2="360"
   x2="470"
   y1="357"
   x1="470" />
<line
   id="line602"
   stroke="#0000ff"
   fill="none"
   y2="369"
   x2="470"
   y1="366"
   x1="470" />
<line
   id="line604"
   stroke="#0000ff"
   fill="none"
   y2="378"
   x2="470"
   y1="375"
   x1="470" />
<line
   id="line606"
   stroke="#0000ff"
   fill="none"
   y2="387"
   x2="470"
   y1="384"
   x1="470" />
<line
   id="line608"
   stroke="#0000ff"
   fill="none"
   y2="396"
   x2="470"
   y1="393"
   x1="470" />
<line
   id="line610"
   stroke="#0000ff"
   fill="none"
   y2="405"
   x2="470"
   y1="402"
   x1="470" />
<line
   id="line612"
   stroke="#0000ff"
   fill="none"
   y2="414"
   x2="470"
   y1="411"
   x1="470" />
<line
   id="line614"
   stroke="#0000ff"
   fill="none"
   y2="423"
   x2="470"
   y1="420"
   x1="470" />
<line
   id="line616"
   stroke="#0000ff"
   fill="none"
   y2="432"
   x2="470"
   y1="429"
   x1="470" />
<line
   id="line618"
   stroke="#0000ff"
   fill="none"
   y2="441"
   x2="470"
   y1="438"
   x1="470" />
<line
   id="line620"
   stroke="#0000ff"
   fill="none"
   y2="450"
   x2="470"
   y1="447"
   x1="470" />
<line
   id="line622"
   stroke="#0000ff"
   fill="none"
   y2="459"
   x2="470"
   y1="456"
   x1="470" />
<line
   id="line624"
   stroke="#0000ff"
   fill="none"
   y2="468"
   x2="470"
   y1="465"
   x1="470" />
<line
   id="line626"
   stroke="#0000ff"
   fill="none"
   y2="477"
   x2="470"
   y1="474"
   x1="470" />
<line
   id="line628"
   stroke="#0000ff"
   fill="none"
   y2="486"
   x2="470"
   y1="483"
   x1="470" />
<line
   id="line630"
   stroke="#0000ff"
   fill="none"
   y2="495"
   x2="470"
   y1="492"
   x1="470" />
<line
   id="line632"
   stroke="#0000ff"
   fill="none"
   y2="504"
   x2="470"
   y1="501"
   x1="470" />
<line
   id="line634"
   stroke="#0000ff"
   fill="none"
   y2="513"
   x2="470"
   y1="510"
   x1="470" />
<line
   id="line636"
   stroke="#0000ff"
   fill="none"
   y2="522"
   x2="470"
   y1="519"
   x1="470" />
<line
   id="line638"
   stroke="#0000ff"
   fill="none"
   y2="531"
   x2="470"
   y1="528"
   x1="470" />
<line
   id="line640"
   stroke="#0000ff"
   fill="none"
   y2="540"
   x2="470"
   y1="537"
   x1="470" />
<line
   id="line642"
   stroke="#0000ff"
   fill="none"
   y2="549"
   x2="470"
   y1="546"
   x1="470" />
<line
   id="line644"
   stroke="#0000ff"
   fill="none"
   y2="558"
   x2="470"
   y1="555"
   x1="470" />
<line
   id="line646"
   stroke="#0000ff"
   fill="none"
   y2="567"
   x2="470"
   y1="564"
   x1="470" />
<line
   id="line648"
   stroke="#0000ff"
   fill="none"
   y2="576"
   x2="470"
   y1="573"
   x1="470" />
<line
   id="line650"
   stroke="#0000ff"
   fill="none"
   y2="585"
   x2="470"
   y1="582"
   x1="470" />
<line
   id="line652"
   stroke="#0000ff"
   fill="none"
   y2="594"
   x2="470"
   y1="591"
   x1="470" />
<line
   id="line654"
   stroke="#0000ff"
   fill="none"
   y2="603"
   x2="470"
   y1="600"
   x1="470" />
<line
   id="line656"
   stroke="#0000ff"
   fill="none"
   y2="612"
   x2="470"
   y1="609"
   x1="470" />
<line
   id="line658"
   stroke="#0000ff"
   fill="none"
   y2="621"
   x2="470"
   y1="618"
   x1="470" />
<line
   id="line660"
   stroke="#0000ff"
   fill="none"
   y2="630"
   x2="470"
   y1="627"
   x1="470" />
<line
   id="line662"
   stroke="#0000ff"
   fill="none"
   y2="639"
   x2="470"
   y1="636"
   x1="470" />
<line
   id="line664"
   stroke="#0000ff"
   fill="none"
   y2="648"
   x2="470"
   y1="645"
   x1="470" />
<line
   id="line666"
   stroke="#0000ff"
   fill="none"
   y2="657"
   x2="470"
   y1="654"
   x1="470" />
<polyline
   id="polyline668"
   stroke="#00ff00"
   fill="none"
   points=" 380.88366890426545,665 385.38366890426545,695.9 466.38366890426545,695.9 470.88366890426545,665" />
<line
   id="line670"
   stroke="#00ff00"
   y2="150"
   x2="541.76733"
   y1="150"
   x1="470.88367" />
<line
   id="line672"
   stroke="#00ff00"
   y2="665"
   x2="541.76733"
   y1="150"
   x1="541.76733" />
<line
   id="line674"
   stroke="#00ff00"
   y2="695.90002"
   x2="485.06039"
   y1="665"
   x1="470.88367" />
<line
   id="line676"
   stroke="#00ff00"
   y2="695.90002"
   x2="527.59058"
   y1="695.90002"
   x1="485.06039" />
<line
   id="line678"
   stroke="#00ff00"
   y2="665"
   x2="541.76733"
   y1="695.90002"
   x1="527.59058" />
<line
   id="line680"
   stroke="#0000ff"
   fill="none"
   y2="253"
   x2="473"
   y1="253"
   x1="470" />
<line
   id="line682"
   stroke="#0000ff"
   fill="none"
   y2="253"
   x2="482"
   y1="253"
   x1="479" />
<line
   id="line684"
   stroke="#0000ff"
   fill="none"
   y2="253"
   x2="491"
   y1="253"
   x1="488" />
<line
   id="line686"
   stroke="#0000ff"
   fill="none"
   y2="253"
   x2="500"
   y1="253"
   x1="497" />
<line
   id="line688"
   stroke="#0000ff"
   fill="none"
   y2="253"
   x2="509"
   y1="253"
   x1="506" />
<line
   id="line690"
   stroke="#0000ff"
   fill="none"
   y2="253"
   x2="518"
   y1="253"
   x1="515" />
<line
   id="line692"
   stroke="#0000ff"
   fill="none"
   y2="253"
   x2="527"
   y1="253"
   x1="524" />
<line
   id="line694"
   stroke="#0000ff"
   fill="none"
   y2="151"
   x2="473"
   y1="150"
   x1="470" />
<line
   id="line696"
   stroke="#0000ff"
   fill="none"
   y2="157"
   x2="480"
   y1="155"
   x1="478" />
<line
   id="line698"
   stroke="#0000ff"
   fill="none"
   y2="162"
   x2="487"
   y1="160"
   x1="485" />
<line
   id="line700"
   stroke="#0000ff"
   fill="none"
   y2="167"
   x2="495"
   y1="165"
   x1="492" />
<line
   id="line702"
   stroke="#0000ff"
   fill="none"
   y2="172"
   x2="502"
   y1="171"
   x1="500" />
<line
   id="line704"
   stroke="#0000ff"
   fill="none"
   y2="178"
   x2="509"
   y1="176"
   x1="507" />
<line
   id="line706"
   stroke="#0000ff"
   fill="none"
   y2="183"
   x2="516"
   y1="181"
   x1="514" />
<line
   id="line708"
   stroke="#0000ff"
   fill="none"
   y2="188"
   x2="524"
   y1="187"
   x1="521" />
<line
   id="line710"
   stroke="#0000ff"
   fill="none"
   y2="194"
   x2="531"
   y1="192"
   x1="529" />
<line
   id="line712"
   stroke="#0000ff"
   fill="none"
   y2="356"
   x2="473"
   y1="356"
   x1="470" />
<line
   id="line714"
   stroke="#0000ff"
   fill="none"
   y2="356"
   x2="482"
   y1="356"
   x1="479" />
<line
   id="line716"
   stroke="#0000ff"
   fill="none"
   y2="356"
   x2="491"
   y1="356"
   x1="488" />
<line
   id="line718"
   stroke="#0000ff"
   fill="none"
   y2="356"
   x2="500"
   y1="356"
   x1="497" />
<line
   id="line720"
   stroke="#0000ff"
   fill="none"
   y2="356"
   x2="509"
   y1="356"
   x1="506" />
<line
   id="line722"
   stroke="#0000ff"
   fill="none"
   y2="356"
   x2="518"
   y1="356"
   x1="515" />
<line
   id="line724"
   stroke="#0000ff"
   fill="none"
   y2="356"
   x2="527"
   y1="356"
   x1="524" />
<line
   id="line726"
   stroke="#0000ff"
   fill="none"
   y2="254"
   x2="473"
   y1="253"
   x1="470" />
<line
   id="line728"
   stroke="#0000ff"
   fill="none"
   y2="260"
   x2="480"
   y1="258"
   x1="478" />
<line
   id="line730"
   stroke="#0000ff"
   fill="none"
   y2="265"
   x2="487"
   y1="263"
   x1="485" />
<line
   id="line732"
   stroke="#0000ff"
   fill="none"
   y2="270"
   x2="495"
   y1="268"
   x1="492" />
<line
   id="line734"
   stroke="#0000ff"
   fill="none"
   y2="275"
   x2="502"
   y1="274"
   x1="500" />
<line
   id="line736"
   stroke="#0000ff"
   fill="none"
   y2="281"
   x2="509"
   y1="279"
   x1="507" />
<line
   id="line738"
   stroke="#0000ff"
   fill="none"
   y2="286"
   x2="516"
   y1="284"
   x1="514" />
<line
   id="line740"
   stroke="#0000ff"
   fill="none"
   y2="291"
   x2="524"
   y1="290"
   x1="521" />
<line
   id="line742"
   stroke="#0000ff"
   fill="none"
   y2="297"
   x2="531"
   y1="295"
   x1="529" />
<line
   id="line744"
   stroke="#0000ff"
   fill="none"
   y2="459"
   x2="473"
   y1="459"
   x1="470" />
<line
   id="line746"
   stroke="#0000ff"
   fill="none"
   y2="459"
   x2="482"
   y1="459"
   x1="479" />
<line
   id="line748"
   stroke="#0000ff"
   fill="none"
   y2="459"
   x2="491"
   y1="459"
   x1="488" />
<line
   id="line750"
   stroke="#0000ff"
   fill="none"
   y2="459"
   x2="500"
   y1="459"
   x1="497" />
<line
   id="line752"
   stroke="#0000ff"
   fill="none"
   y2="459"
   x2="509"
   y1="459"
   x1="506" />
<line
   id="line754"
   stroke="#0000ff"
   fill="none"
   y2="459"
   x2="518"
   y1="459"
   x1="515" />
<line
   id="line756"
   stroke="#0000ff"
   fill="none"
   y2="459"
   x2="527"
   y1="459"
   x1="524" />
<line
   id="line758"
   stroke="#0000ff"
   fill="none"
   y2="357"
   x2="473"
   y1="356"
   x1="470" />
<line
   id="line760"
   stroke="#0000ff"
   fill="none"
   y2="363"
   x2="480"
   y1="361"
   x1="478" />
<line
   id="line762"
   stroke="#0000ff"
   fill="none"
   y2="368"
   x2="487"
   y1="366"
   x1="485" />
<line
   id="line764"
   stroke="#0000ff"
   fill="none"
   y2="373"
   x2="495"
   y1="371"
   x1="492" />
<line
   id="line766"
   stroke="#0000ff"
   fill="none"
   y2="378"
   x2="502"
   y1="377"
   x1="500" />
<line
   id="line768"
   stroke="#0000ff"
   fill="none"
   y2="384"
   x2="509"
   y1="382"
   x1="507" />
<line
   id="line770"
   stroke="#0000ff"
   fill="none"
   y2="389"
   x2="516"
   y1="387"
   x1="514" />
<line
   id="line772"
   stroke="#0000ff"
   fill="none"
   y2="394"
   x2="524"
   y1="393"
   x1="521" />
<line
   id="line774"
   stroke="#0000ff"
   fill="none"
   y2="400"
   x2="531"
   y1="398"
   x1="529" />
<line
   id="line776"
   stroke="#0000ff"
   fill="none"
   y2="562"
   x2="473"
   y1="562"
   x1="470" />
<line
   id="line778"
   stroke="#0000ff"
   fill="none"
   y2="562"
   x2="482"
   y1="562"
   x1="479" />
<line
   id="line780"
   stroke="#0000ff"
   fill="none"
   y2="562"
   x2="491"
   y1="562"
   x1="488" />
<line
   id="line782"
   stroke="#0000ff"
   fill="none"
   y2="562"
   x2="500"
   y1="562"
   x1="497" />
<line
   id="line784"
   stroke="#0000ff"
   fill="none"
   y2="562"
   x2="509"
   y1="562"
   x1="506" />
<line
   id="line786"
   stroke="#0000ff"
   fill="none"
   y2="562"
   x2="518"
   y1="562"
   x1="515" />
<line
   id="line788"
   stroke="#0000ff"
   fill="none"
   y2="562"
   x2="527"
   y1="562"
   x1="524" />
<line
   id="line790"
   stroke="#0000ff"
   fill="none"
   y2="460"
   x2="473"
   y1="459"
   x1="470" />
<line
   id="line792"
   stroke="#0000ff"
   fill="none"
   y2="466"
   x2="480"
   y1="464"
   x1="478" />
<line
   id="line794"
   stroke="#0000ff"
   fill="none"
   y2="471"
   x2="487"
   y1="469"
   x1="485" />
<line
   id="line796"
   stroke="#0000ff"
   fill="none"
   y2="476"
   x2="495"
   y1="474"
   x1="492" />
<line
   id="line798"
   stroke="#0000ff"
   fill="none"
   y2="481"
   x2="502"
   y1="480"
   x1="500" />
<line
   id="line800"
   stroke="#0000ff"
   fill="none"
   y2="487"
   x2="509"
   y1="485"
   x1="507" />
<line
   id="line802"
   stroke="#0000ff"
   fill="none"
   y2="492"
   x2="516"
   y1="490"
   x1="514" />
<line
   id="line804"
   stroke="#0000ff"
   fill="none"
   y2="497"
   x2="524"
   y1="496"
   x1="521" />
<line
   id="line806"
   stroke="#0000ff"
   fill="none"
   y2="503"
   x2="531"
   y1="501"
   x1="529" />
<line
   id="line808"
   stroke="#0000ff"
   fill="none"
   y2="665"
   x2="473"
   y1="665"
   x1="470" />
<line
   id="line810"
   stroke="#0000ff"
   fill="none"
   y2="665"
   x2="482"
   y1="665"
   x1="479" />
<line
   id="line812"
   stroke="#0000ff"
   fill="none"
   y2="665"
   x2="491"
   y1="665"
   x1="488" />
<line
   id="line814"
   stroke="#0000ff"
   fill="none"
   y2="665"
   x2="500"
   y1="665"
   x1="497" />
<line
   id="line816"
   stroke="#0000ff"
   fill="none"
   y2="665"
   x2="509"
   y1="665"
   x1="506" />
<line
   id="line818"
   stroke="#0000ff"
   fill="none"
   y2="665"
   x2="518"
   y1="665"
   x1="515" />
<line
   id="line820"
   stroke="#0000ff"
   fill="none"
   y2="665"
   x2="527"
   y1="665"
   x1="524" />
<line
   id="line822"
   stroke="#0000ff"
   fill="none"
   y2="563"
   x2="473"
   y1="562"
   x1="470" />
<line
   id="line824"
   stroke="#0000ff"
   fill="none"
   y2="569"
   x2="480"
   y1="567"
   x1="478" />
<line
   id="line826"
   stroke="#0000ff"
   fill="none"
   y2="574"
   x2="487"
   y1="572"
   x1="485" />
<line
   id="line828"
   stroke="#0000ff"
   fill="none"
   y2="579"
   x2="495"
   y1="577"
   x1="492" />
<line
   id="line830"
   stroke="#0000ff"
   fill="none"
   y2="584"
   x2="502"
   y1="583"
   x1="500" />
<line
   id="line832"
   stroke="#0000ff"
   fill="none"
   y2="590"
   x2="509"
   y1="588"
   x1="507" />
<line
   id="line834"
   stroke="#0000ff"
   fill="none"
   y2="595"
   x2="516"
   y1="593"
   x1="514" />
<line
   id="line836"
   stroke="#0000ff"
   fill="none"
   y2="600"
   x2="524"
   y1="599"
   x1="521" />
<line
   id="line838"
   stroke="#0000ff"
   fill="none"
   y2="606"
   x2="531"
   y1="604"
   x1="529" />
</g>
</svg>
