<svg viewBox="0 0 1000 1000" xmlns="http://www.w3.org/2000/svg">
<ellipse rx="111" ry="33" cx="350.0" cy="200.0" fill="none"   stroke="blue"/>
<ellipse rx="111" ry="33" cx="350.0" cy="300.0" fill="none"   stroke="blue"/>
<ellipse rx="111" ry="33" cx="350.0" cy="400.0" fill="none"   stroke="blue"/>
<ellipse rx="111" ry="33" cx="350.0" cy="500.0" fill="none"   stroke="blue"/>
<line x1="150" y1="150" x2="550" y2="150" stroke="lime"  transform= />
<line x1="150" y1="250" x2="153" y2="250" fill="none" stroke="blue"/>
<line x1="159" y1="250" x2="162" y2="250" fill="none" stroke="blue"/>
<line x1="168" y1="250" x2="171" y2="250" fill="none" stroke="blue"/>
<line x1="177" y1="250" x2="180" y2="250" fill="none" stroke="blue"/>
<line x1="186" y1="250" x2="189" y2="250" fill="none" stroke="blue"/>
<line x1="195" y1="250" x2="198" y2="250" fill="none" stroke="blue"/>
<line x1="204" y1="250" x2="207" y2="250" fill="none" stroke="blue"/>
<line x1="213" y1="250" x2="216" y2="250" fill="none" stroke="blue"/>
<line x1="222" y1="250" x2="225" y2="250" fill="none" stroke="blue"/>
<line x1="231" y1="250" x2="234" y2="250" fill="none" stroke="blue"/>
<line x1="240" y1="250" x2="243" y2="250" fill="none" stroke="blue"/>
<line x1="249" y1="250" x2="252" y2="250" fill="none" stroke="blue"/>
<line x1="258" y1="250" x2="261" y2="250" fill="none" stroke="blue"/>
<line x1="267" y1="250" x2="270" y2="250" fill="none" stroke="blue"/>
<line x1="276" y1="250" x2="279" y2="250" fill="none" stroke="blue"/>
<line x1="285" y1="250" x2="288" y2="250" fill="none" stroke="blue"/>
<line x1="294" y1="250" x2="297" y2="250" fill="none" stroke="blue"/>
<line x1="303" y1="250" x2="306" y2="250" fill="none" stroke="blue"/>
<line x1="312" y1="250" x2="315" y2="250" fill="none" stroke="blue"/>
<line x1="321" y1="250" x2="324" y2="250" fill="none" stroke="blue"/>
<line x1="330" y1="250" x2="333" y2="250" fill="none" stroke="blue"/>
<line x1="339" y1="250" x2="342" y2="250" fill="none" stroke="blue"/>
<line x1="348" y1="250" x2="351" y2="250" fill="none" stroke="blue"/>
<line x1="357" y1="250" x2="360" y2="250" fill="none" stroke="blue"/>
<line x1="366" y1="250" x2="369" y2="250" fill="none" stroke="blue"/>
<line x1="375" y1="250" x2="378" y2="250" fill="none" stroke="blue"/>
<line x1="384" y1="250" x2="387" y2="250" fill="none" stroke="blue"/>
<line x1="393" y1="250" x2="396" y2="250" fill="none" stroke="blue"/>
<line x1="402" y1="250" x2="405" y2="250" fill="none" stroke="blue"/>
<line x1="411" y1="250" x2="414" y2="250" fill="none" stroke="blue"/>
<line x1="420" y1="250" x2="423" y2="250" fill="none" stroke="blue"/>
<line x1="429" y1="250" x2="432" y2="250" fill="none" stroke="blue"/>
<line x1="438" y1="250" x2="441" y2="250" fill="none" stroke="blue"/>
<line x1="447" y1="250" x2="450" y2="250" fill="none" stroke="blue"/>
<line x1="456" y1="250" x2="459" y2="250" fill="none" stroke="blue"/>
<line x1="465" y1="250" x2="468" y2="250" fill="none" stroke="blue"/>
<line x1="474" y1="250" x2="477" y2="250" fill="none" stroke="blue"/>
<line x1="483" y1="250" x2="486" y2="250" fill="none" stroke="blue"/>
<line x1="492" y1="250" x2="495" y2="250" fill="none" stroke="blue"/>
<line x1="501" y1="250" x2="504" y2="250" fill="none" stroke="blue"/>
<line x1="510" y1="250" x2="513" y2="250" fill="none" stroke="blue"/>
<line x1="519" y1="250" x2="522" y2="250" fill="none" stroke="blue"/>
<line x1="528" y1="250" x2="531" y2="250" fill="none" stroke="blue"/>
<line x1="537" y1="250" x2="540" y2="250" fill="none" stroke="blue"/>
<line x1="150" y1="150" x2="152" y2="150" fill="none" stroke="blue"/>
<line x1="158" y1="152" x2="161" y2="152" fill="none" stroke="blue"/>
<line x1="167" y1="154" x2="170" y2="155" fill="none" stroke="blue"/>
<line x1="176" y1="156" x2="179" y2="157" fill="none" stroke="blue"/>
<line x1="184" y1="158" x2="187" y2="159" fill="none" stroke="blue"/>
<line x1="193" y1="160" x2="196" y2="161" fill="none" stroke="blue"/>
<line x1="202" y1="163" x2="205" y2="163" fill="none" stroke="blue"/>
<line x1="211" y1="165" x2="214" y2="166" fill="none" stroke="blue"/>
<line x1="219" y1="167" x2="222" y2="168" fill="none" stroke="blue"/>
<line x1="228" y1="169" x2="231" y2="170" fill="none" stroke="blue"/>
<line x1="237" y1="171" x2="240" y2="172" fill="none" stroke="blue"/>
<line x1="246" y1="174" x2="248" y2="174" fill="none" stroke="blue"/>
<line x1="254" y1="176" x2="257" y2="176" fill="none" stroke="blue"/>
<line x1="263" y1="178" x2="266" y2="179" fill="none" stroke="blue"/>
<line x1="272" y1="180" x2="275" y2="181" fill="none" stroke="blue"/>
<line x1="280" y1="182" x2="283" y2="183" fill="none" stroke="blue"/>
<line x1="289" y1="184" x2="292" y2="185" fill="none" stroke="blue"/>
<line x1="298" y1="187" x2="301" y2="187" fill="none" stroke="blue"/>
<line x1="307" y1="189" x2="310" y2="190" fill="none" stroke="blue"/>
<line x1="315" y1="191" x2="318" y2="192" fill="none" stroke="blue"/>
<line x1="324" y1="193" x2="327" y2="194" fill="none" stroke="blue"/>
<line x1="333" y1="195" x2="336" y2="196" fill="none" stroke="blue"/>
<line x1="342" y1="198" x2="344" y2="198" fill="none" stroke="blue"/>
<line x1="350" y1="200" x2="353" y2="200" fill="none" stroke="blue"/>
<line x1="359" y1="202" x2="362" y2="203" fill="none" stroke="blue"/>
<line x1="368" y1="204" x2="371" y2="205" fill="none" stroke="blue"/>
<line x1="377" y1="206" x2="379" y2="207" fill="none" stroke="blue"/>
<line x1="385" y1="208" x2="388" y2="209" fill="none" stroke="blue"/>
<line x1="394" y1="211" x2="397" y2="211" fill="none" stroke="blue"/>
<line x1="403" y1="213" x2="406" y2="214" fill="none" stroke="blue"/>
<line x1="411" y1="215" x2="414" y2="216" fill="none" stroke="blue"/>
<line x1="420" y1="217" x2="423" y2="218" fill="none" stroke="blue"/>
<line x1="429" y1="219" x2="432" y2="220" fill="none" stroke="blue"/>
<line x1="438" y1="222" x2="441" y2="222" fill="none" stroke="blue"/>
<line x1="446" y1="224" x2="449" y2="224" fill="none" stroke="blue"/>
<line x1="455" y1="226" x2="458" y2="227" fill="none" stroke="blue"/>
<line x1="464" y1="228" x2="467" y2="229" fill="none" stroke="blue"/>
<line x1="473" y1="230" x2="475" y2="231" fill="none" stroke="blue"/>
<line x1="481" y1="232" x2="484" y2="233" fill="none" stroke="blue"/>
<line x1="490" y1="235" x2="493" y2="235" fill="none" stroke="blue"/>
<line x1="499" y1="237" x2="502" y2="238" fill="none" stroke="blue"/>
<line x1="507" y1="239" x2="510" y2="240" fill="none" stroke="blue"/>
<line x1="516" y1="241" x2="519" y2="242" fill="none" stroke="blue"/>
<line x1="525" y1="243" x2="528" y2="244" fill="none" stroke="blue"/>
<line x1="534" y1="246" x2="537" y2="246" fill="none" stroke="blue"/>
<line x1="150" y1="350" x2="153" y2="350" fill="none" stroke="blue"/>
<line x1="159" y1="350" x2="162" y2="350" fill="none" stroke="blue"/>
<line x1="168" y1="350" x2="171" y2="350" fill="none" stroke="blue"/>
<line x1="177" y1="350" x2="180" y2="350" fill="none" stroke="blue"/>
<line x1="186" y1="350" x2="189" y2="350" fill="none" stroke="blue"/>
<line x1="195" y1="350" x2="198" y2="350" fill="none" stroke="blue"/>
<line x1="204" y1="350" x2="207" y2="350" fill="none" stroke="blue"/>
<line x1="213" y1="350" x2="216" y2="350" fill="none" stroke="blue"/>
<line x1="222" y1="350" x2="225" y2="350" fill="none" stroke="blue"/>
<line x1="231" y1="350" x2="234" y2="350" fill="none" stroke="blue"/>
<line x1="240" y1="350" x2="243" y2="350" fill="none" stroke="blue"/>
<line x1="249" y1="350" x2="252" y2="350" fill="none" stroke="blue"/>
<line x1="258" y1="350" x2="261" y2="350" fill="none" stroke="blue"/>
<line x1="267" y1="350" x2="270" y2="350" fill="none" stroke="blue"/>
<line x1="276" y1="350" x2="279" y2="350" fill="none" stroke="blue"/>
<line x1="285" y1="350" x2="288" y2="350" fill="none" stroke="blue"/>
<line x1="294" y1="350" x2="297" y2="350" fill="none" stroke="blue"/>
<line x1="303" y1="350" x2="306" y2="350" fill="none" stroke="blue"/>
<line x1="312" y1="350" x2="315" y2="350" fill="none" stroke="blue"/>
<line x1="321" y1="350" x2="324" y2="350" fill="none" stroke="blue"/>
<line x1="330" y1="350" x2="333" y2="350" fill="none" stroke="blue"/>
<line x1="339" y1="350" x2="342" y2="350" fill="none" stroke="blue"/>
<line x1="348" y1="350" x2="351" y2="350" fill="none" stroke="blue"/>
<line x1="357" y1="350" x2="360" y2="350" fill="none" stroke="blue"/>
<line x1="366" y1="350" x2="369" y2="350" fill="none" stroke="blue"/>
<line x1="375" y1="350" x2="378" y2="350" fill="none" stroke="blue"/>
<line x1="384" y1="350" x2="387" y2="350" fill="none" stroke="blue"/>
<line x1="393" y1="350" x2="396" y2="350" fill="none" stroke="blue"/>
<line x1="402" y1="350" x2="405" y2="350" fill="none" stroke="blue"/>
<line x1="411" y1="350" x2="414" y2="350" fill="none" stroke="blue"/>
<line x1="420" y1="350" x2="423" y2="350" fill="none" stroke="blue"/>
<line x1="429" y1="350" x2="432" y2="350" fill="none" stroke="blue"/>
<line x1="438" y1="350" x2="441" y2="350" fill="none" stroke="blue"/>
<line x1="447" y1="350" x2="450" y2="350" fill="none" stroke="blue"/>
<line x1="456" y1="350" x2="459" y2="350" fill="none" stroke="blue"/>
<line x1="465" y1="350" x2="468" y2="350" fill="none" stroke="blue"/>
<line x1="474" y1="350" x2="477" y2="350" fill="none" stroke="blue"/>
<line x1="483" y1="350" x2="486" y2="350" fill="none" stroke="blue"/>
<line x1="492" y1="350" x2="495" y2="350" fill="none" stroke="blue"/>
<line x1="501" y1="350" x2="504" y2="350" fill="none" stroke="blue"/>
<line x1="510" y1="350" x2="513" y2="350" fill="none" stroke="blue"/>
<line x1="519" y1="350" x2="522" y2="350" fill="none" stroke="blue"/>
<line x1="528" y1="350" x2="531" y2="350" fill="none" stroke="blue"/>
<line x1="537" y1="350" x2="540" y2="350" fill="none" stroke="blue"/>
<line x1="150" y1="250" x2="152" y2="250" fill="none" stroke="blue"/>
<line x1="158" y1="252" x2="161" y2="252" fill="none" stroke="blue"/>
<line x1="167" y1="254" x2="170" y2="255" fill="none" stroke="blue"/>
<line x1="176" y1="256" x2="179" y2="257" fill="none" stroke="blue"/>
<line x1="184" y1="258" x2="187" y2="259" fill="none" stroke="blue"/>
<line x1="193" y1="260" x2="196" y2="261" fill="none" stroke="blue"/>
<line x1="202" y1="263" x2="205" y2="263" fill="none" stroke="blue"/>
<line x1="211" y1="265" x2="214" y2="266" fill="none" stroke="blue"/>
<line x1="219" y1="267" x2="222" y2="268" fill="none" stroke="blue"/>
<line x1="228" y1="269" x2="231" y2="270" fill="none" stroke="blue"/>
<line x1="237" y1="271" x2="240" y2="272" fill="none" stroke="blue"/>
<line x1="246" y1="274" x2="248" y2="274" fill="none" stroke="blue"/>
<line x1="254" y1="276" x2="257" y2="276" fill="none" stroke="blue"/>
<line x1="263" y1="278" x2="266" y2="279" fill="none" stroke="blue"/>
<line x1="272" y1="280" x2="275" y2="281" fill="none" stroke="blue"/>
<line x1="280" y1="282" x2="283" y2="283" fill="none" stroke="blue"/>
<line x1="289" y1="284" x2="292" y2="285" fill="none" stroke="blue"/>
<line x1="298" y1="287" x2="301" y2="287" fill="none" stroke="blue"/>
<line x1="307" y1="289" x2="310" y2="290" fill="none" stroke="blue"/>
<line x1="315" y1="291" x2="318" y2="292" fill="none" stroke="blue"/>
<line x1="324" y1="293" x2="327" y2="294" fill="none" stroke="blue"/>
<line x1="333" y1="295" x2="336" y2="296" fill="none" stroke="blue"/>
<line x1="342" y1="298" x2="344" y2="298" fill="none" stroke="blue"/>
<line x1="350" y1="300" x2="353" y2="300" fill="none" stroke="blue"/>
<line x1="359" y1="302" x2="362" y2="303" fill="none" stroke="blue"/>
<line x1="368" y1="304" x2="371" y2="305" fill="none" stroke="blue"/>
<line x1="377" y1="306" x2="379" y2="307" fill="none" stroke="blue"/>
<line x1="385" y1="308" x2="388" y2="309" fill="none" stroke="blue"/>
<line x1="394" y1="311" x2="397" y2="311" fill="none" stroke="blue"/>
<line x1="403" y1="313" x2="406" y2="314" fill="none" stroke="blue"/>
<line x1="411" y1="315" x2="414" y2="316" fill="none" stroke="blue"/>
<line x1="420" y1="317" x2="423" y2="318" fill="none" stroke="blue"/>
<line x1="429" y1="319" x2="432" y2="320" fill="none" stroke="blue"/>
<line x1="438" y1="322" x2="441" y2="322" fill="none" stroke="blue"/>
<line x1="446" y1="324" x2="449" y2="324" fill="none" stroke="blue"/>
<line x1="455" y1="326" x2="458" y2="327" fill="none" stroke="blue"/>
<line x1="464" y1="328" x2="467" y2="329" fill="none" stroke="blue"/>
<line x1="473" y1="330" x2="475" y2="331" fill="none" stroke="blue"/>
<line x1="481" y1="332" x2="484" y2="333" fill="none" stroke="blue"/>
<line x1="490" y1="335" x2="493" y2="335" fill="none" stroke="blue"/>
<line x1="499" y1="337" x2="502" y2="338" fill="none" stroke="blue"/>
<line x1="507" y1="339" x2="510" y2="340" fill="none" stroke="blue"/>
<line x1="516" y1="341" x2="519" y2="342" fill="none" stroke="blue"/>
<line x1="525" y1="343" x2="528" y2="344" fill="none" stroke="blue"/>
<line x1="534" y1="346" x2="537" y2="346" fill="none" stroke="blue"/>
<line x1="150" y1="450" x2="153" y2="450" fill="none" stroke="blue"/>
<line x1="159" y1="450" x2="162" y2="450" fill="none" stroke="blue"/>
<line x1="168" y1="450" x2="171" y2="450" fill="none" stroke="blue"/>
<line x1="177" y1="450" x2="180" y2="450" fill="none" stroke="blue"/>
<line x1="186" y1="450" x2="189" y2="450" fill="none" stroke="blue"/>
<line x1="195" y1="450" x2="198" y2="450" fill="none" stroke="blue"/>
<line x1="204" y1="450" x2="207" y2="450" fill="none" stroke="blue"/>
<line x1="213" y1="450" x2="216" y2="450" fill="none" stroke="blue"/>
<line x1="222" y1="450" x2="225" y2="450" fill="none" stroke="blue"/>
<line x1="231" y1="450" x2="234" y2="450" fill="none" stroke="blue"/>
<line x1="240" y1="450" x2="243" y2="450" fill="none" stroke="blue"/>
<line x1="249" y1="450" x2="252" y2="450" fill="none" stroke="blue"/>
<line x1="258" y1="450" x2="261" y2="450" fill="none" stroke="blue"/>
<line x1="267" y1="450" x2="270" y2="450" fill="none" stroke="blue"/>
<line x1="276" y1="450" x2="279" y2="450" fill="none" stroke="blue"/>
<line x1="285" y1="450" x2="288" y2="450" fill="none" stroke="blue"/>
<line x1="294" y1="450" x2="297" y2="450" fill="none" stroke="blue"/>
<line x1="303" y1="450" x2="306" y2="450" fill="none" stroke="blue"/>
<line x1="312" y1="450" x2="315" y2="450" fill="none" stroke="blue"/>
<line x1="321" y1="450" x2="324" y2="450" fill="none" stroke="blue"/>
<line x1="330" y1="450" x2="333" y2="450" fill="none" stroke="blue"/>
<line x1="339" y1="450" x2="342" y2="450" fill="none" stroke="blue"/>
<line x1="348" y1="450" x2="351" y2="450" fill="none" stroke="blue"/>
<line x1="357" y1="450" x2="360" y2="450" fill="none" stroke="blue"/>
<line x1="366" y1="450" x2="369" y2="450" fill="none" stroke="blue"/>
<line x1="375" y1="450" x2="378" y2="450" fill="none" stroke="blue"/>
<line x1="384" y1="450" x2="387" y2="450" fill="none" stroke="blue"/>
<line x1="393" y1="450" x2="396" y2="450" fill="none" stroke="blue"/>
<line x1="402" y1="450" x2="405" y2="450" fill="none" stroke="blue"/>
<line x1="411" y1="450" x2="414" y2="450" fill="none" stroke="blue"/>
<line x1="420" y1="450" x2="423" y2="450" fill="none" stroke="blue"/>
<line x1="429" y1="450" x2="432" y2="450" fill="none" stroke="blue"/>
<line x1="438" y1="450" x2="441" y2="450" fill="none" stroke="blue"/>
<line x1="447" y1="450" x2="450" y2="450" fill="none" stroke="blue"/>
<line x1="456" y1="450" x2="459" y2="450" fill="none" stroke="blue"/>
<line x1="465" y1="450" x2="468" y2="450" fill="none" stroke="blue"/>
<line x1="474" y1="450" x2="477" y2="450" fill="none" stroke="blue"/>
<line x1="483" y1="450" x2="486" y2="450" fill="none" stroke="blue"/>
<line x1="492" y1="450" x2="495" y2="450" fill="none" stroke="blue"/>
<line x1="501" y1="450" x2="504" y2="450" fill="none" stroke="blue"/>
<line x1="510" y1="450" x2="513" y2="450" fill="none" stroke="blue"/>
<line x1="519" y1="450" x2="522" y2="450" fill="none" stroke="blue"/>
<line x1="528" y1="450" x2="531" y2="450" fill="none" stroke="blue"/>
<line x1="537" y1="450" x2="540" y2="450" fill="none" stroke="blue"/>
<line x1="150" y1="350" x2="152" y2="350" fill="none" stroke="blue"/>
<line x1="158" y1="352" x2="161" y2="352" fill="none" stroke="blue"/>
<line x1="167" y1="354" x2="170" y2="355" fill="none" stroke="blue"/>
<line x1="176" y1="356" x2="179" y2="357" fill="none" stroke="blue"/>
<line x1="184" y1="358" x2="187" y2="359" fill="none" stroke="blue"/>
<line x1="193" y1="360" x2="196" y2="361" fill="none" stroke="blue"/>
<line x1="202" y1="363" x2="205" y2="363" fill="none" stroke="blue"/>
<line x1="211" y1="365" x2="214" y2="366" fill="none" stroke="blue"/>
<line x1="219" y1="367" x2="222" y2="368" fill="none" stroke="blue"/>
<line x1="228" y1="369" x2="231" y2="370" fill="none" stroke="blue"/>
<line x1="237" y1="371" x2="240" y2="372" fill="none" stroke="blue"/>
<line x1="246" y1="374" x2="248" y2="374" fill="none" stroke="blue"/>
<line x1="254" y1="376" x2="257" y2="376" fill="none" stroke="blue"/>
<line x1="263" y1="378" x2="266" y2="379" fill="none" stroke="blue"/>
<line x1="272" y1="380" x2="275" y2="381" fill="none" stroke="blue"/>
<line x1="280" y1="382" x2="283" y2="383" fill="none" stroke="blue"/>
<line x1="289" y1="384" x2="292" y2="385" fill="none" stroke="blue"/>
<line x1="298" y1="387" x2="301" y2="387" fill="none" stroke="blue"/>
<line x1="307" y1="389" x2="310" y2="390" fill="none" stroke="blue"/>
<line x1="315" y1="391" x2="318" y2="392" fill="none" stroke="blue"/>
<line x1="324" y1="393" x2="327" y2="394" fill="none" stroke="blue"/>
<line x1="333" y1="395" x2="336" y2="396" fill="none" stroke="blue"/>
<line x1="342" y1="398" x2="344" y2="398" fill="none" stroke="blue"/>
<line x1="350" y1="400" x2="353" y2="400" fill="none" stroke="blue"/>
<line x1="359" y1="402" x2="362" y2="403" fill="none" stroke="blue"/>
<line x1="368" y1="404" x2="371" y2="405" fill="none" stroke="blue"/>
<line x1="377" y1="406" x2="379" y2="407" fill="none" stroke="blue"/>
<line x1="385" y1="408" x2="388" y2="409" fill="none" stroke="blue"/>
<line x1="394" y1="411" x2="397" y2="411" fill="none" stroke="blue"/>
<line x1="403" y1="413" x2="406" y2="414" fill="none" stroke="blue"/>
<line x1="411" y1="415" x2="414" y2="416" fill="none" stroke="blue"/>
<line x1="420" y1="417" x2="423" y2="418" fill="none" stroke="blue"/>
<line x1="429" y1="419" x2="432" y2="420" fill="none" stroke="blue"/>
<line x1="438" y1="422" x2="441" y2="422" fill="none" stroke="blue"/>
<line x1="446" y1="424" x2="449" y2="424" fill="none" stroke="blue"/>
<line x1="455" y1="426" x2="458" y2="427" fill="none" stroke="blue"/>
<line x1="464" y1="428" x2="467" y2="429" fill="none" stroke="blue"/>
<line x1="473" y1="430" x2="475" y2="431" fill="none" stroke="blue"/>
<line x1="481" y1="432" x2="484" y2="433" fill="none" stroke="blue"/>
<line x1="490" y1="435" x2="493" y2="435" fill="none" stroke="blue"/>
<line x1="499" y1="437" x2="502" y2="438" fill="none" stroke="blue"/>
<line x1="507" y1="439" x2="510" y2="440" fill="none" stroke="blue"/>
<line x1="516" y1="441" x2="519" y2="442" fill="none" stroke="blue"/>
<line x1="525" y1="443" x2="528" y2="444" fill="none" stroke="blue"/>
<line x1="534" y1="446" x2="537" y2="446" fill="none" stroke="blue"/>
<line x1="150" y1="150" x2="150" y2="153" fill="none" stroke="blue"/>
<line x1="150" y1="159" x2="150" y2="162" fill="none" stroke="blue"/>
<line x1="150" y1="168" x2="150" y2="171" fill="none" stroke="blue"/>
<line x1="150" y1="177" x2="150" y2="180" fill="none" stroke="blue"/>
<line x1="150" y1="186" x2="150" y2="189" fill="none" stroke="blue"/>
<line x1="150" y1="195" x2="150" y2="198" fill="none" stroke="blue"/>
<line x1="150" y1="204" x2="150" y2="207" fill="none" stroke="blue"/>
<line x1="150" y1="213" x2="150" y2="216" fill="none" stroke="blue"/>
<line x1="150" y1="222" x2="150" y2="225" fill="none" stroke="blue"/>
<line x1="150" y1="231" x2="150" y2="234" fill="none" stroke="blue"/>
<line x1="150" y1="240" x2="150" y2="243" fill="none" stroke="blue"/>
<line x1="150" y1="249" x2="150" y2="252" fill="none" stroke="blue"/>
<line x1="150" y1="258" x2="150" y2="261" fill="none" stroke="blue"/>
<line x1="150" y1="267" x2="150" y2="270" fill="none" stroke="blue"/>
<line x1="150" y1="276" x2="150" y2="279" fill="none" stroke="blue"/>
<line x1="150" y1="285" x2="150" y2="288" fill="none" stroke="blue"/>
<line x1="150" y1="294" x2="150" y2="297" fill="none" stroke="blue"/>
<line x1="150" y1="303" x2="150" y2="306" fill="none" stroke="blue"/>
<line x1="150" y1="312" x2="150" y2="315" fill="none" stroke="blue"/>
<line x1="150" y1="321" x2="150" y2="324" fill="none" stroke="blue"/>
<line x1="150" y1="330" x2="150" y2="333" fill="none" stroke="blue"/>
<line x1="150" y1="339" x2="150" y2="342" fill="none" stroke="blue"/>
<line x1="150" y1="348" x2="150" y2="351" fill="none" stroke="blue"/>
<line x1="150" y1="357" x2="150" y2="360" fill="none" stroke="blue"/>
<line x1="150" y1="366" x2="150" y2="369" fill="none" stroke="blue"/>
<line x1="150" y1="375" x2="150" y2="378" fill="none" stroke="blue"/>
<line x1="150" y1="384" x2="150" y2="387" fill="none" stroke="blue"/>
<line x1="150" y1="393" x2="150" y2="396" fill="none" stroke="blue"/>
<line x1="150" y1="402" x2="150" y2="405" fill="none" stroke="blue"/>
<line x1="150" y1="411" x2="150" y2="414" fill="none" stroke="blue"/>
<line x1="150" y1="420" x2="150" y2="423" fill="none" stroke="blue"/>
<line x1="150" y1="429" x2="150" y2="432" fill="none" stroke="blue"/>
<line x1="150" y1="438" x2="150" y2="441" fill="none" stroke="blue"/>
<line x1="550" y1="150" x2="550" y2="153" fill="none" stroke="blue"/>
<line x1="550" y1="159" x2="550" y2="162" fill="none" stroke="blue"/>
<line x1="550" y1="168" x2="550" y2="171" fill="none" stroke="blue"/>
<line x1="550" y1="177" x2="550" y2="180" fill="none" stroke="blue"/>
<line x1="550" y1="186" x2="550" y2="189" fill="none" stroke="blue"/>
<line x1="550" y1="195" x2="550" y2="198" fill="none" stroke="blue"/>
<line x1="550" y1="204" x2="550" y2="207" fill="none" stroke="blue"/>
<line x1="550" y1="213" x2="550" y2="216" fill="none" stroke="blue"/>
<line x1="550" y1="222" x2="550" y2="225" fill="none" stroke="blue"/>
<line x1="550" y1="231" x2="550" y2="234" fill="none" stroke="blue"/>
<line x1="550" y1="240" x2="550" y2="243" fill="none" stroke="blue"/>
<line x1="550" y1="249" x2="550" y2="252" fill="none" stroke="blue"/>
<line x1="550" y1="258" x2="550" y2="261" fill="none" stroke="blue"/>
<line x1="550" y1="267" x2="550" y2="270" fill="none" stroke="blue"/>
<line x1="550" y1="276" x2="550" y2="279" fill="none" stroke="blue"/>
<line x1="550" y1="285" x2="550" y2="288" fill="none" stroke="blue"/>
<line x1="550" y1="294" x2="550" y2="297" fill="none" stroke="blue"/>
<line x1="550" y1="303" x2="550" y2="306" fill="none" stroke="blue"/>
<line x1="550" y1="312" x2="550" y2="315" fill="none" stroke="blue"/>
<line x1="550" y1="321" x2="550" y2="324" fill="none" stroke="blue"/>
<line x1="550" y1="330" x2="550" y2="333" fill="none" stroke="blue"/>
<line x1="550" y1="339" x2="550" y2="342" fill="none" stroke="blue"/>
<line x1="550" y1="348" x2="550" y2="351" fill="none" stroke="blue"/>
<line x1="550" y1="357" x2="550" y2="360" fill="none" stroke="blue"/>
<line x1="550" y1="366" x2="550" y2="369" fill="none" stroke="blue"/>
<line x1="550" y1="375" x2="550" y2="378" fill="none" stroke="blue"/>
<line x1="550" y1="384" x2="550" y2="387" fill="none" stroke="blue"/>
<line x1="550" y1="393" x2="550" y2="396" fill="none" stroke="blue"/>
<line x1="550" y1="402" x2="550" y2="405" fill="none" stroke="blue"/>
<line x1="550" y1="411" x2="550" y2="414" fill="none" stroke="blue"/>
<line x1="550" y1="420" x2="550" y2="423" fill="none" stroke="blue"/>
<line x1="550" y1="429" x2="550" y2="432" fill="none" stroke="blue"/>
<line x1="550" y1="438" x2="550" y2="441" fill="none" stroke="blue"/>
<polyline points=" 150,450 170.0,480.0 530.0,480.0 550,450"  fill="none" stroke="lime"/>
<line x1="550" y1="150" x2="578.8675134594813" y2="150" stroke="lime"  transform= />
<line x1="578.8675134594813" y1="150" x2="578.8675134594813" y2="450" stroke="lime"  transform= />
<line x1="550" y1="450" x2="555.7735026918963" y2="480.0" stroke="lime"  transform= />
<line x1="555.7735026918963" y1="480.0" x2="573.094010767585" y2="480.0" stroke="lime"  transform= />
<line x1="573.094010767585" y1="480.0" x2="578.8675134594813" y2="450" stroke="lime"  transform= />
<line x1="550" y1="250" x2="553" y2="250" fill="none" stroke="blue"/>
<line x1="559" y1="250" x2="562" y2="250" fill="none" stroke="blue"/>
<line x1="568" y1="250" x2="571" y2="250" fill="none" stroke="blue"/>
<line x1="550" y1="250" x2="551" y2="247" fill="none" stroke="blue"/>
<line x1="554" y1="242" x2="556" y2="239" fill="none" stroke="blue"/>
<line x1="559" y1="234" x2="560" y2="231" fill="none" stroke="blue"/>
<line x1="563" y1="226" x2="565" y2="224" fill="none" stroke="blue"/>
<line x1="568" y1="218" x2="569" y2="216" fill="none" stroke="blue"/>
<line x1="572" y1="211" x2="574" y2="208" fill="none" stroke="blue"/>
<line x1="550" y1="350" x2="553" y2="350" fill="none" stroke="blue"/>
<line x1="559" y1="350" x2="562" y2="350" fill="none" stroke="blue"/>
<line x1="568" y1="350" x2="571" y2="350" fill="none" stroke="blue"/>
<line x1="550" y1="350" x2="551" y2="347" fill="none" stroke="blue"/>
<line x1="554" y1="342" x2="556" y2="339" fill="none" stroke="blue"/>
<line x1="559" y1="334" x2="560" y2="331" fill="none" stroke="blue"/>
<line x1="563" y1="326" x2="565" y2="324" fill="none" stroke="blue"/>
<line x1="568" y1="318" x2="569" y2="316" fill="none" stroke="blue"/>
<line x1="572" y1="311" x2="574" y2="308" fill="none" stroke="blue"/>
<line x1="550" y1="450" x2="553" y2="450" fill="none" stroke="blue"/>
<line x1="559" y1="450" x2="562" y2="450" fill="none" stroke="blue"/>
<line x1="568" y1="450" x2="571" y2="450" fill="none" stroke="blue"/>
<line x1="550" y1="450" x2="551" y2="447" fill="none" stroke="blue"/>
<line x1="554" y1="442" x2="556" y2="439" fill="none" stroke="blue"/>
<line x1="559" y1="434" x2="560" y2="431" fill="none" stroke="blue"/>
<line x1="563" y1="426" x2="565" y2="424" fill="none" stroke="blue"/>
<line x1="568" y1="418" x2="569" y2="416" fill="none" stroke="blue"/>
<line x1="572" y1="411" x2="574" y2="408" fill="none" stroke="blue"/>
<line x1="150" y1="150" x2="121.13248654051871" y2="150" stroke="lime"  transform= />
<line x1="121.13248654051871" y1="150" x2="121.13248654051871" y2="450" stroke="lime"  transform= />
<line x1="150" y1="450" x2="144.22649730810375" y2="480.0" stroke="lime"  transform= />
<line x1="148.0" y1="480.0" x2="126.90598923241497" y2="480.0" stroke="lime"  transform= />
<line x1="126.90598923241497" y1="480.0" x2="121.13248654051871" y2="450" stroke="lime"  transform= />
<line x1="121" y1="250" x2="124" y2="250" fill="none" stroke="blue"/>
<line x1="130" y1="250" x2="133" y2="250" fill="none" stroke="blue"/>
<line x1="139" y1="250" x2="142" y2="250" fill="none" stroke="blue"/>
<line x1="121" y1="200" x2="122" y2="197" fill="none" stroke="blue"/>
<line x1="125" y1="192" x2="127" y2="189" fill="none" stroke="blue"/>
<line x1="130" y1="184" x2="131" y2="181" fill="none" stroke="blue"/>
<line x1="134" y1="176" x2="136" y2="174" fill="none" stroke="blue"/>
<line x1="139" y1="168" x2="140" y2="166" fill="none" stroke="blue"/>
<line x1="143" y1="161" x2="145" y2="158" fill="none" stroke="blue"/>
<line x1="121" y1="350" x2="124" y2="350" fill="none" stroke="blue"/>
<line x1="130" y1="350" x2="133" y2="350" fill="none" stroke="blue"/>
<line x1="139" y1="350" x2="142" y2="350" fill="none" stroke="blue"/>
<line x1="121" y1="300" x2="122" y2="297" fill="none" stroke="blue"/>
<line x1="125" y1="292" x2="127" y2="289" fill="none" stroke="blue"/>
<line x1="130" y1="284" x2="131" y2="281" fill="none" stroke="blue"/>
<line x1="134" y1="276" x2="136" y2="274" fill="none" stroke="blue"/>
<line x1="139" y1="268" x2="140" y2="266" fill="none" stroke="blue"/>
<line x1="143" y1="261" x2="145" y2="258" fill="none" stroke="blue"/>
<line x1="121" y1="450" x2="124" y2="450" fill="none" stroke="blue"/>
<line x1="130" y1="450" x2="133" y2="450" fill="none" stroke="blue"/>
<line x1="139" y1="450" x2="142" y2="450" fill="none" stroke="blue"/>
<line x1="121" y1="400" x2="122" y2="397" fill="none" stroke="blue"/>
<line x1="125" y1="392" x2="127" y2="389" fill="none" stroke="blue"/>
<line x1="130" y1="384" x2="131" y2="381" fill="none" stroke="blue"/>
<line x1="134" y1="376" x2="136" y2="374" fill="none" stroke="blue"/>
<line x1="139" y1="368" x2="140" y2="366" fill="none" stroke="blue"/>
<line x1="143" y1="361" x2="145" y2="358" fill="none" stroke="blue"/>
</svg>
